<?xml version="1.0" encoding="utf-8" standalone="no"?>
<!DOCTYPE svg PUBLIC "-//W3C//DTD SVG 1.1//EN"
  "http://www.w3.org/Graphics/SVG/1.1/DTD/svg11.dtd">
<svg xmlns:xlink="http://www.w3.org/1999/xlink" width="713.374517pt" height="567.872187pt" viewBox="0 0 713.374517 567.872187" xmlns="http://www.w3.org/2000/svg" version="1.1">
 <metadata>
  <rdf:RDF xmlns:dc="http://purl.org/dc/elements/1.1/" xmlns:cc="http://creativecommons.org/ns#" xmlns:rdf="http://www.w3.org/1999/02/22-rdf-syntax-ns#">
   <cc:Work>
    <dc:type rdf:resource="http://purl.org/dc/dcmitype/StillImage"/>
    <dc:date>2025-07-31T18:33:32.223123</dc:date>
    <dc:format>image/svg+xml</dc:format>
    <dc:creator>
     <cc:Agent>
      <dc:title>Matplotlib v3.10.3, https://matplotlib.org/</dc:title>
     </cc:Agent>
    </dc:creator>
   </cc:Work>
  </rdf:RDF>
 </metadata>
 <defs>
  <style type="text/css">*{stroke-linejoin: round; stroke-linecap: butt}</style>
 </defs>
 <g id="figure_1">
  <g id="patch_1">
   <path d="M 0 567.872187 
L 713.374517 567.872187 
L 713.374517 0 
L 0 0 
z
" style="fill: #ffffff"/>
  </g>
  <g id="axes_1">
   <g id="patch_2">
    <path d="M 212.3125 525.476875 
L 699.957335 525.476875 
L 699.957335 28.396875 
L 212.3125 28.396875 
z
" style="fill: #ffffff"/>
   </g>
   <g id="patch_3">
    <path d="M 449.942576 31.320875 
L 677.791661 31.320875 
L 677.791661 54.712875 
L 449.942576 54.712875 
z
" clip-path="url(#pe7a7e36826)" style="fill: #5c6fc4"/>
   </g>
   <g id="patch_4">
    <path d="M 449.942576 60.560875 
L 662.115213 60.560875 
L 662.115213 83.952875 
L 449.942576 83.952875 
z
" clip-path="url(#pe7a7e36826)" style="fill: #6e85d5"/>
   </g>
   <g id="patch_5">
    <path d="M 449.942576 89.800875 
L 652.792645 89.800875 
L 652.792645 113.192875 
L 449.942576 113.192875 
z
" clip-path="url(#pe7a7e36826)" style="fill: #8099e2"/>
   </g>
   <g id="patch_6">
    <path d="M 449.942576 119.040875 
L 639.14331 119.040875 
L 639.14331 142.432875 
L 449.942576 142.432875 
z
" clip-path="url(#pe7a7e36826)" style="fill: #91acec"/>
   </g>
   <g id="patch_7">
    <path d="M 449.942576 148.280875 
L 622.069115 148.280875 
L 622.069115 171.672875 
L 449.942576 171.672875 
z
" clip-path="url(#pe7a7e36826)" style="fill: #a4bdf2"/>
   </g>
   <g id="patch_8">
    <path d="M 449.942576 177.520875 
L 617.588231 177.520875 
L 617.588231 200.912875 
L 449.942576 200.912875 
z
" clip-path="url(#pe7a7e36826)" style="fill: #b5caf3"/>
   </g>
   <g id="patch_9">
    <path d="M 449.942576 206.760875 
L 544.669762 206.760875 
L 544.669762 230.152875 
L 449.942576 230.152875 
z
" clip-path="url(#pe7a7e36826)" style="fill: #c4d4f0"/>
   </g>
   <g id="patch_10">
    <path d="M 449.942576 236.000875 
L 528.966546 236.000875 
L 528.966546 259.392875 
L 449.942576 259.392875 
z
" clip-path="url(#pe7a7e36826)" style="fill: #d1dae8"/>
   </g>
   <g id="patch_11">
    <path d="M 449.942576 265.240875 
L 509.016224 265.240875 
L 509.016224 288.632875 
L 449.942576 288.632875 
z
" clip-path="url(#pe7a7e36826)" style="fill: #dddcdc"/>
   </g>
   <g id="patch_12">
    <path d="M 449.942576 294.480875 
L 458.910003 294.480875 
L 458.910003 317.872875 
L 449.942576 317.872875 
z
" clip-path="url(#pe7a7e36826)" style="fill: #e6d5cc"/>
   </g>
   <g id="patch_13">
    <path d="M 449.942576 323.720875 
L 458.343163 323.720875 
L 458.343163 347.112875 
L 449.942576 347.112875 
z
" clip-path="url(#pe7a7e36826)" style="fill: #ebcaba"/>
   </g>
   <g id="patch_14">
    <path d="M 449.942576 352.960875 
L 442.856795 352.960875 
L 442.856795 376.352875 
L 449.942576 376.352875 
z
" clip-path="url(#pe7a7e36826)" style="fill: #ecbca7"/>
   </g>
   <g id="patch_15">
    <path d="M 449.942576 382.200875 
L 409.693865 382.200875 
L 409.693865 405.592875 
L 449.942576 405.592875 
z
" clip-path="url(#pe7a7e36826)" style="fill: #e8ab94"/>
   </g>
   <g id="patch_16">
    <path d="M 449.942576 411.440875 
L 364.196292 411.440875 
L 364.196292 434.832875 
L 449.942576 434.832875 
z
" clip-path="url(#pe7a7e36826)" style="fill: #e1967f"/>
   </g>
   <g id="patch_17">
    <path d="M 449.942576 440.680875 
L 343.118153 440.680875 
L 343.118153 464.072875 
L 449.942576 464.072875 
z
" clip-path="url(#pe7a7e36826)" style="fill: #d57f6c"/>
   </g>
   <g id="patch_18">
    <path d="M 449.942576 469.920875 
L 239.748636 469.920875 
L 239.748636 493.312875 
L 449.942576 493.312875 
z
" clip-path="url(#pe7a7e36826)" style="fill: #c7665a"/>
   </g>
   <g id="patch_19">
    <path d="M 449.942576 499.160875 
L 234.478174 499.160875 
L 234.478174 522.552875 
L 449.942576 522.552875 
z
" clip-path="url(#pe7a7e36826)" style="fill: #b64a48"/>
   </g>
   <g id="matplotlib.axis_1">
    <g id="xtick_1">
     <g id="line2d_1">
      <defs>
       <path id="m4ce277abf3" d="M 0 0 
L 0 3.5 
" style="stroke: #000000; stroke-width: 0.8"/>
      </defs>
      <g>
       <use xlink:href="#m4ce277abf3" x="266.11823" y="525.476875" style="stroke: #000000; stroke-width: 0.8"/>
      </g>
     </g>
     <g id="text_1">
      <!-- −0.75 -->
      <g transform="translate(250.795574 540.075312) scale(0.1 -0.1)">
       <defs>
        <path id="DejaVuSans-2212" d="M 678 2272 
L 4684 2272 
L 4684 1741 
L 678 1741 
L 678 2272 
z
" transform="scale(0.015625)"/>
        <path id="DejaVuSans-30" d="M 2034 4250 
Q 1547 4250 1301 3770 
Q 1056 3291 1056 2328 
Q 1056 1369 1301 889 
Q 1547 409 2034 409 
Q 2525 409 2770 889 
Q 3016 1369 3016 2328 
Q 3016 3291 2770 3770 
Q 2525 4250 2034 4250 
z
M 2034 4750 
Q 2819 4750 3233 4129 
Q 3647 3509 3647 2328 
Q 3647 1150 3233 529 
Q 2819 -91 2034 -91 
Q 1250 -91 836 529 
Q 422 1150 422 2328 
Q 422 3509 836 4129 
Q 1250 4750 2034 4750 
z
" transform="scale(0.015625)"/>
        <path id="DejaVuSans-2e" d="M 684 794 
L 1344 794 
L 1344 0 
L 684 0 
L 684 794 
z
" transform="scale(0.015625)"/>
        <path id="DejaVuSans-37" d="M 525 4666 
L 3525 4666 
L 3525 4397 
L 1831 0 
L 1172 0 
L 2766 4134 
L 525 4134 
L 525 4666 
z
" transform="scale(0.015625)"/>
        <path id="DejaVuSans-35" d="M 691 4666 
L 3169 4666 
L 3169 4134 
L 1269 4134 
L 1269 2991 
Q 1406 3038 1543 3061 
Q 1681 3084 1819 3084 
Q 2600 3084 3056 2656 
Q 3513 2228 3513 1497 
Q 3513 744 3044 326 
Q 2575 -91 1722 -91 
Q 1428 -91 1123 -41 
Q 819 9 494 109 
L 494 744 
Q 775 591 1075 516 
Q 1375 441 1709 441 
Q 2250 441 2565 725 
Q 2881 1009 2881 1497 
Q 2881 1984 2565 2268 
Q 2250 2553 1709 2553 
Q 1456 2553 1204 2497 
Q 953 2441 691 2322 
L 691 4666 
z
" transform="scale(0.015625)"/>
       </defs>
       <use xlink:href="#DejaVuSans-2212"/>
       <use xlink:href="#DejaVuSans-30" transform="translate(83.789062 0)"/>
       <use xlink:href="#DejaVuSans-2e" transform="translate(147.412109 0)"/>
       <use xlink:href="#DejaVuSans-37" transform="translate(179.199219 0)"/>
       <use xlink:href="#DejaVuSans-35" transform="translate(242.822266 0)"/>
      </g>
     </g>
    </g>
    <g id="xtick_2">
     <g id="line2d_2">
      <g>
       <use xlink:href="#m4ce277abf3" x="327.393012" y="525.476875" style="stroke: #000000; stroke-width: 0.8"/>
      </g>
     </g>
     <g id="text_2">
      <!-- −0.50 -->
      <g transform="translate(312.070356 540.075312) scale(0.1 -0.1)">
       <use xlink:href="#DejaVuSans-2212"/>
       <use xlink:href="#DejaVuSans-30" transform="translate(83.789062 0)"/>
       <use xlink:href="#DejaVuSans-2e" transform="translate(147.412109 0)"/>
       <use xlink:href="#DejaVuSans-35" transform="translate(179.199219 0)"/>
       <use xlink:href="#DejaVuSans-30" transform="translate(242.822266 0)"/>
      </g>
     </g>
    </g>
    <g id="xtick_3">
     <g id="line2d_3">
      <g>
       <use xlink:href="#m4ce277abf3" x="388.667794" y="525.476875" style="stroke: #000000; stroke-width: 0.8"/>
      </g>
     </g>
     <g id="text_3">
      <!-- −0.25 -->
      <g transform="translate(373.345138 540.075312) scale(0.1 -0.1)">
       <defs>
        <path id="DejaVuSans-32" d="M 1228 531 
L 3431 531 
L 3431 0 
L 469 0 
L 469 531 
Q 828 903 1448 1529 
Q 2069 2156 2228 2338 
Q 2531 2678 2651 2914 
Q 2772 3150 2772 3378 
Q 2772 3750 2511 3984 
Q 2250 4219 1831 4219 
Q 1534 4219 1204 4116 
Q 875 4013 500 3803 
L 500 4441 
Q 881 4594 1212 4672 
Q 1544 4750 1819 4750 
Q 2544 4750 2975 4387 
Q 3406 4025 3406 3419 
Q 3406 3131 3298 2873 
Q 3191 2616 2906 2266 
Q 2828 2175 2409 1742 
Q 1991 1309 1228 531 
z
" transform="scale(0.015625)"/>
       </defs>
       <use xlink:href="#DejaVuSans-2212"/>
       <use xlink:href="#DejaVuSans-30" transform="translate(83.789062 0)"/>
       <use xlink:href="#DejaVuSans-2e" transform="translate(147.412109 0)"/>
       <use xlink:href="#DejaVuSans-32" transform="translate(179.199219 0)"/>
       <use xlink:href="#DejaVuSans-35" transform="translate(242.822266 0)"/>
      </g>
     </g>
    </g>
    <g id="xtick_4">
     <g id="line2d_4">
      <g>
       <use xlink:href="#m4ce277abf3" x="449.942576" y="525.476875" style="stroke: #000000; stroke-width: 0.8"/>
      </g>
     </g>
     <g id="text_4">
      <!-- 0.00 -->
      <g transform="translate(438.809764 540.075312) scale(0.1 -0.1)">
       <use xlink:href="#DejaVuSans-30"/>
       <use xlink:href="#DejaVuSans-2e" transform="translate(63.623047 0)"/>
       <use xlink:href="#DejaVuSans-30" transform="translate(95.410156 0)"/>
       <use xlink:href="#DejaVuSans-30" transform="translate(159.033203 0)"/>
      </g>
     </g>
    </g>
    <g id="xtick_5">
     <g id="line2d_5">
      <g>
       <use xlink:href="#m4ce277abf3" x="511.217358" y="525.476875" style="stroke: #000000; stroke-width: 0.8"/>
      </g>
     </g>
     <g id="text_5">
      <!-- 0.25 -->
      <g transform="translate(500.084546 540.075312) scale(0.1 -0.1)">
       <use xlink:href="#DejaVuSans-30"/>
       <use xlink:href="#DejaVuSans-2e" transform="translate(63.623047 0)"/>
       <use xlink:href="#DejaVuSans-32" transform="translate(95.410156 0)"/>
       <use xlink:href="#DejaVuSans-35" transform="translate(159.033203 0)"/>
      </g>
     </g>
    </g>
    <g id="xtick_6">
     <g id="line2d_6">
      <g>
       <use xlink:href="#m4ce277abf3" x="572.49214" y="525.476875" style="stroke: #000000; stroke-width: 0.8"/>
      </g>
     </g>
     <g id="text_6">
      <!-- 0.50 -->
      <g transform="translate(561.359328 540.075312) scale(0.1 -0.1)">
       <use xlink:href="#DejaVuSans-30"/>
       <use xlink:href="#DejaVuSans-2e" transform="translate(63.623047 0)"/>
       <use xlink:href="#DejaVuSans-35" transform="translate(95.410156 0)"/>
       <use xlink:href="#DejaVuSans-30" transform="translate(159.033203 0)"/>
      </g>
     </g>
    </g>
    <g id="xtick_7">
     <g id="line2d_7">
      <g>
       <use xlink:href="#m4ce277abf3" x="633.766923" y="525.476875" style="stroke: #000000; stroke-width: 0.8"/>
      </g>
     </g>
     <g id="text_7">
      <!-- 0.75 -->
      <g transform="translate(622.63411 540.075312) scale(0.1 -0.1)">
       <use xlink:href="#DejaVuSans-30"/>
       <use xlink:href="#DejaVuSans-2e" transform="translate(63.623047 0)"/>
       <use xlink:href="#DejaVuSans-37" transform="translate(95.410156 0)"/>
       <use xlink:href="#DejaVuSans-35" transform="translate(159.033203 0)"/>
      </g>
     </g>
    </g>
    <g id="xtick_8">
     <g id="line2d_8">
      <g>
       <use xlink:href="#m4ce277abf3" x="695.041705" y="525.476875" style="stroke: #000000; stroke-width: 0.8"/>
      </g>
     </g>
     <g id="text_8">
      <!-- 1.00 -->
      <g transform="translate(683.908892 540.075312) scale(0.1 -0.1)">
       <defs>
        <path id="DejaVuSans-31" d="M 794 531 
L 1825 531 
L 1825 4091 
L 703 3866 
L 703 4441 
L 1819 4666 
L 2450 4666 
L 2450 531 
L 3481 531 
L 3481 0 
L 794 0 
L 794 531 
z
" transform="scale(0.015625)"/>
       </defs>
       <use xlink:href="#DejaVuSans-31"/>
       <use xlink:href="#DejaVuSans-2e" transform="translate(63.623047 0)"/>
       <use xlink:href="#DejaVuSans-30" transform="translate(95.410156 0)"/>
       <use xlink:href="#DejaVuSans-30" transform="translate(159.033203 0)"/>
      </g>
     </g>
    </g>
    <g id="text_9">
     <!-- Correlation Coefficient -->
     <g transform="translate(372.077496 557.552656) scale(0.15 -0.15)">
      <defs>
       <path id="DejaVuSans-43" d="M 4122 4306 
L 4122 3641 
Q 3803 3938 3442 4084 
Q 3081 4231 2675 4231 
Q 1875 4231 1450 3742 
Q 1025 3253 1025 2328 
Q 1025 1406 1450 917 
Q 1875 428 2675 428 
Q 3081 428 3442 575 
Q 3803 722 4122 1019 
L 4122 359 
Q 3791 134 3420 21 
Q 3050 -91 2638 -91 
Q 1578 -91 968 557 
Q 359 1206 359 2328 
Q 359 3453 968 4101 
Q 1578 4750 2638 4750 
Q 3056 4750 3426 4639 
Q 3797 4528 4122 4306 
z
" transform="scale(0.015625)"/>
       <path id="DejaVuSans-6f" d="M 1959 3097 
Q 1497 3097 1228 2736 
Q 959 2375 959 1747 
Q 959 1119 1226 758 
Q 1494 397 1959 397 
Q 2419 397 2687 759 
Q 2956 1122 2956 1747 
Q 2956 2369 2687 2733 
Q 2419 3097 1959 3097 
z
M 1959 3584 
Q 2709 3584 3137 3096 
Q 3566 2609 3566 1747 
Q 3566 888 3137 398 
Q 2709 -91 1959 -91 
Q 1206 -91 779 398 
Q 353 888 353 1747 
Q 353 2609 779 3096 
Q 1206 3584 1959 3584 
z
" transform="scale(0.015625)"/>
       <path id="DejaVuSans-72" d="M 2631 2963 
Q 2534 3019 2420 3045 
Q 2306 3072 2169 3072 
Q 1681 3072 1420 2755 
Q 1159 2438 1159 1844 
L 1159 0 
L 581 0 
L 581 3500 
L 1159 3500 
L 1159 2956 
Q 1341 3275 1631 3429 
Q 1922 3584 2338 3584 
Q 2397 3584 2469 3576 
Q 2541 3569 2628 3553 
L 2631 2963 
z
" transform="scale(0.015625)"/>
       <path id="DejaVuSans-65" d="M 3597 1894 
L 3597 1613 
L 953 1613 
Q 991 1019 1311 708 
Q 1631 397 2203 397 
Q 2534 397 2845 478 
Q 3156 559 3463 722 
L 3463 178 
Q 3153 47 2828 -22 
Q 2503 -91 2169 -91 
Q 1331 -91 842 396 
Q 353 884 353 1716 
Q 353 2575 817 3079 
Q 1281 3584 2069 3584 
Q 2775 3584 3186 3129 
Q 3597 2675 3597 1894 
z
M 3022 2063 
Q 3016 2534 2758 2815 
Q 2500 3097 2075 3097 
Q 1594 3097 1305 2825 
Q 1016 2553 972 2059 
L 3022 2063 
z
" transform="scale(0.015625)"/>
       <path id="DejaVuSans-6c" d="M 603 4863 
L 1178 4863 
L 1178 0 
L 603 0 
L 603 4863 
z
" transform="scale(0.015625)"/>
       <path id="DejaVuSans-61" d="M 2194 1759 
Q 1497 1759 1228 1600 
Q 959 1441 959 1056 
Q 959 750 1161 570 
Q 1363 391 1709 391 
Q 2188 391 2477 730 
Q 2766 1069 2766 1631 
L 2766 1759 
L 2194 1759 
z
M 3341 1997 
L 3341 0 
L 2766 0 
L 2766 531 
Q 2569 213 2275 61 
Q 1981 -91 1556 -91 
Q 1019 -91 701 211 
Q 384 513 384 1019 
Q 384 1609 779 1909 
Q 1175 2209 1959 2209 
L 2766 2209 
L 2766 2266 
Q 2766 2663 2505 2880 
Q 2244 3097 1772 3097 
Q 1472 3097 1187 3025 
Q 903 2953 641 2809 
L 641 3341 
Q 956 3463 1253 3523 
Q 1550 3584 1831 3584 
Q 2591 3584 2966 3190 
Q 3341 2797 3341 1997 
z
" transform="scale(0.015625)"/>
       <path id="DejaVuSans-74" d="M 1172 4494 
L 1172 3500 
L 2356 3500 
L 2356 3053 
L 1172 3053 
L 1172 1153 
Q 1172 725 1289 603 
Q 1406 481 1766 481 
L 2356 481 
L 2356 0 
L 1766 0 
Q 1100 0 847 248 
Q 594 497 594 1153 
L 594 3053 
L 172 3053 
L 172 3500 
L 594 3500 
L 594 4494 
L 1172 4494 
z
" transform="scale(0.015625)"/>
       <path id="DejaVuSans-69" d="M 603 3500 
L 1178 3500 
L 1178 0 
L 603 0 
L 603 3500 
z
M 603 4863 
L 1178 4863 
L 1178 4134 
L 603 4134 
L 603 4863 
z
" transform="scale(0.015625)"/>
       <path id="DejaVuSans-6e" d="M 3513 2113 
L 3513 0 
L 2938 0 
L 2938 2094 
Q 2938 2591 2744 2837 
Q 2550 3084 2163 3084 
Q 1697 3084 1428 2787 
Q 1159 2491 1159 1978 
L 1159 0 
L 581 0 
L 581 3500 
L 1159 3500 
L 1159 2956 
Q 1366 3272 1645 3428 
Q 1925 3584 2291 3584 
Q 2894 3584 3203 3211 
Q 3513 2838 3513 2113 
z
" transform="scale(0.015625)"/>
       <path id="DejaVuSans-20" transform="scale(0.015625)"/>
       <path id="DejaVuSans-66" d="M 2375 4863 
L 2375 4384 
L 1825 4384 
Q 1516 4384 1395 4259 
Q 1275 4134 1275 3809 
L 1275 3500 
L 2222 3500 
L 2222 3053 
L 1275 3053 
L 1275 0 
L 697 0 
L 697 3053 
L 147 3053 
L 147 3500 
L 697 3500 
L 697 3744 
Q 697 4328 969 4595 
Q 1241 4863 1831 4863 
L 2375 4863 
z
" transform="scale(0.015625)"/>
       <path id="DejaVuSans-63" d="M 3122 3366 
L 3122 2828 
Q 2878 2963 2633 3030 
Q 2388 3097 2138 3097 
Q 1578 3097 1268 2742 
Q 959 2388 959 1747 
Q 959 1106 1268 751 
Q 1578 397 2138 397 
Q 2388 397 2633 464 
Q 2878 531 3122 666 
L 3122 134 
Q 2881 22 2623 -34 
Q 2366 -91 2075 -91 
Q 1284 -91 818 406 
Q 353 903 353 1747 
Q 353 2603 823 3093 
Q 1294 3584 2113 3584 
Q 2378 3584 2631 3529 
Q 2884 3475 3122 3366 
z
" transform="scale(0.015625)"/>
      </defs>
      <use xlink:href="#DejaVuSans-43"/>
      <use xlink:href="#DejaVuSans-6f" transform="translate(69.824219 0)"/>
      <use xlink:href="#DejaVuSans-72" transform="translate(131.005859 0)"/>
      <use xlink:href="#DejaVuSans-72" transform="translate(170.369141 0)"/>
      <use xlink:href="#DejaVuSans-65" transform="translate(209.232422 0)"/>
      <use xlink:href="#DejaVuSans-6c" transform="translate(270.755859 0)"/>
      <use xlink:href="#DejaVuSans-61" transform="translate(298.539062 0)"/>
      <use xlink:href="#DejaVuSans-74" transform="translate(359.818359 0)"/>
      <use xlink:href="#DejaVuSans-69" transform="translate(399.027344 0)"/>
      <use xlink:href="#DejaVuSans-6f" transform="translate(426.810547 0)"/>
      <use xlink:href="#DejaVuSans-6e" transform="translate(487.992188 0)"/>
      <use xlink:href="#DejaVuSans-20" transform="translate(551.371094 0)"/>
      <use xlink:href="#DejaVuSans-43" transform="translate(583.158203 0)"/>
      <use xlink:href="#DejaVuSans-6f" transform="translate(652.982422 0)"/>
      <use xlink:href="#DejaVuSans-65" transform="translate(714.164062 0)"/>
      <use xlink:href="#DejaVuSans-66" transform="translate(775.6875 0)"/>
      <use xlink:href="#DejaVuSans-66" transform="translate(810.892578 0)"/>
      <use xlink:href="#DejaVuSans-69" transform="translate(846.097656 0)"/>
      <use xlink:href="#DejaVuSans-63" transform="translate(873.880859 0)"/>
      <use xlink:href="#DejaVuSans-69" transform="translate(928.861328 0)"/>
      <use xlink:href="#DejaVuSans-65" transform="translate(956.644531 0)"/>
      <use xlink:href="#DejaVuSans-6e" transform="translate(1018.167969 0)"/>
      <use xlink:href="#DejaVuSans-74" transform="translate(1081.546875 0)"/>
     </g>
    </g>
   </g>
   <g id="matplotlib.axis_2">
    <g id="ytick_1">
     <g id="line2d_9">
      <defs>
       <path id="mbd518ea32d" d="M 0 0 
L -3.5 0 
" style="stroke: #000000; stroke-width: 0.8"/>
      </defs>
      <g>
       <use xlink:href="#mbd518ea32d" x="212.3125" y="43.016875" style="stroke: #000000; stroke-width: 0.8"/>
      </g>
     </g>
     <g id="text_10">
      <!-- Rule of Law -->
      <g transform="translate(147.671875 46.816094) scale(0.1 -0.1)">
       <defs>
        <path id="DejaVuSans-52" d="M 2841 2188 
Q 3044 2119 3236 1894 
Q 3428 1669 3622 1275 
L 4263 0 
L 3584 0 
L 2988 1197 
Q 2756 1666 2539 1819 
Q 2322 1972 1947 1972 
L 1259 1972 
L 1259 0 
L 628 0 
L 628 4666 
L 2053 4666 
Q 2853 4666 3247 4331 
Q 3641 3997 3641 3322 
Q 3641 2881 3436 2590 
Q 3231 2300 2841 2188 
z
M 1259 4147 
L 1259 2491 
L 2053 2491 
Q 2509 2491 2742 2702 
Q 2975 2913 2975 3322 
Q 2975 3731 2742 3939 
Q 2509 4147 2053 4147 
L 1259 4147 
z
" transform="scale(0.015625)"/>
        <path id="DejaVuSans-75" d="M 544 1381 
L 544 3500 
L 1119 3500 
L 1119 1403 
Q 1119 906 1312 657 
Q 1506 409 1894 409 
Q 2359 409 2629 706 
Q 2900 1003 2900 1516 
L 2900 3500 
L 3475 3500 
L 3475 0 
L 2900 0 
L 2900 538 
Q 2691 219 2414 64 
Q 2138 -91 1772 -91 
Q 1169 -91 856 284 
Q 544 659 544 1381 
z
M 1991 3584 
L 1991 3584 
z
" transform="scale(0.015625)"/>
        <path id="DejaVuSans-4c" d="M 628 4666 
L 1259 4666 
L 1259 531 
L 3531 531 
L 3531 0 
L 628 0 
L 628 4666 
z
" transform="scale(0.015625)"/>
        <path id="DejaVuSans-77" d="M 269 3500 
L 844 3500 
L 1563 769 
L 2278 3500 
L 2956 3500 
L 3675 769 
L 4391 3500 
L 4966 3500 
L 4050 0 
L 3372 0 
L 2619 2869 
L 1863 0 
L 1184 0 
L 269 3500 
z
" transform="scale(0.015625)"/>
       </defs>
       <use xlink:href="#DejaVuSans-52"/>
       <use xlink:href="#DejaVuSans-75" transform="translate(64.982422 0)"/>
       <use xlink:href="#DejaVuSans-6c" transform="translate(128.361328 0)"/>
       <use xlink:href="#DejaVuSans-65" transform="translate(156.144531 0)"/>
       <use xlink:href="#DejaVuSans-20" transform="translate(217.667969 0)"/>
       <use xlink:href="#DejaVuSans-6f" transform="translate(249.455078 0)"/>
       <use xlink:href="#DejaVuSans-66" transform="translate(310.636719 0)"/>
       <use xlink:href="#DejaVuSans-20" transform="translate(345.841797 0)"/>
       <use xlink:href="#DejaVuSans-4c" transform="translate(377.628906 0)"/>
       <use xlink:href="#DejaVuSans-61" transform="translate(433.341797 0)"/>
       <use xlink:href="#DejaVuSans-77" transform="translate(494.621094 0)"/>
      </g>
     </g>
    </g>
    <g id="ytick_2">
     <g id="line2d_10">
      <g>
       <use xlink:href="#mbd518ea32d" x="212.3125" y="72.256875" style="stroke: #000000; stroke-width: 0.8"/>
      </g>
     </g>
     <g id="text_11">
      <!-- Voice and Accountability -->
      <g transform="translate(82.501562 76.056094) scale(0.1 -0.1)">
       <defs>
        <path id="DejaVuSans-56" d="M 1831 0 
L 50 4666 
L 709 4666 
L 2188 738 
L 3669 4666 
L 4325 4666 
L 2547 0 
L 1831 0 
z
" transform="scale(0.015625)"/>
        <path id="DejaVuSans-64" d="M 2906 2969 
L 2906 4863 
L 3481 4863 
L 3481 0 
L 2906 0 
L 2906 525 
Q 2725 213 2448 61 
Q 2172 -91 1784 -91 
Q 1150 -91 751 415 
Q 353 922 353 1747 
Q 353 2572 751 3078 
Q 1150 3584 1784 3584 
Q 2172 3584 2448 3432 
Q 2725 3281 2906 2969 
z
M 947 1747 
Q 947 1113 1208 752 
Q 1469 391 1925 391 
Q 2381 391 2643 752 
Q 2906 1113 2906 1747 
Q 2906 2381 2643 2742 
Q 2381 3103 1925 3103 
Q 1469 3103 1208 2742 
Q 947 2381 947 1747 
z
" transform="scale(0.015625)"/>
        <path id="DejaVuSans-41" d="M 2188 4044 
L 1331 1722 
L 3047 1722 
L 2188 4044 
z
M 1831 4666 
L 2547 4666 
L 4325 0 
L 3669 0 
L 3244 1197 
L 1141 1197 
L 716 0 
L 50 0 
L 1831 4666 
z
" transform="scale(0.015625)"/>
        <path id="DejaVuSans-62" d="M 3116 1747 
Q 3116 2381 2855 2742 
Q 2594 3103 2138 3103 
Q 1681 3103 1420 2742 
Q 1159 2381 1159 1747 
Q 1159 1113 1420 752 
Q 1681 391 2138 391 
Q 2594 391 2855 752 
Q 3116 1113 3116 1747 
z
M 1159 2969 
Q 1341 3281 1617 3432 
Q 1894 3584 2278 3584 
Q 2916 3584 3314 3078 
Q 3713 2572 3713 1747 
Q 3713 922 3314 415 
Q 2916 -91 2278 -91 
Q 1894 -91 1617 61 
Q 1341 213 1159 525 
L 1159 0 
L 581 0 
L 581 4863 
L 1159 4863 
L 1159 2969 
z
" transform="scale(0.015625)"/>
        <path id="DejaVuSans-79" d="M 2059 -325 
Q 1816 -950 1584 -1140 
Q 1353 -1331 966 -1331 
L 506 -1331 
L 506 -850 
L 844 -850 
Q 1081 -850 1212 -737 
Q 1344 -625 1503 -206 
L 1606 56 
L 191 3500 
L 800 3500 
L 1894 763 
L 2988 3500 
L 3597 3500 
L 2059 -325 
z
" transform="scale(0.015625)"/>
       </defs>
       <use xlink:href="#DejaVuSans-56"/>
       <use xlink:href="#DejaVuSans-6f" transform="translate(60.658203 0)"/>
       <use xlink:href="#DejaVuSans-69" transform="translate(121.839844 0)"/>
       <use xlink:href="#DejaVuSans-63" transform="translate(149.623047 0)"/>
       <use xlink:href="#DejaVuSans-65" transform="translate(204.603516 0)"/>
       <use xlink:href="#DejaVuSans-20" transform="translate(266.126953 0)"/>
       <use xlink:href="#DejaVuSans-61" transform="translate(297.914062 0)"/>
       <use xlink:href="#DejaVuSans-6e" transform="translate(359.193359 0)"/>
       <use xlink:href="#DejaVuSans-64" transform="translate(422.572266 0)"/>
       <use xlink:href="#DejaVuSans-20" transform="translate(486.048828 0)"/>
       <use xlink:href="#DejaVuSans-41" transform="translate(517.835938 0)"/>
       <use xlink:href="#DejaVuSans-63" transform="translate(584.494141 0)"/>
       <use xlink:href="#DejaVuSans-63" transform="translate(639.474609 0)"/>
       <use xlink:href="#DejaVuSans-6f" transform="translate(694.455078 0)"/>
       <use xlink:href="#DejaVuSans-75" transform="translate(755.636719 0)"/>
       <use xlink:href="#DejaVuSans-6e" transform="translate(819.015625 0)"/>
       <use xlink:href="#DejaVuSans-74" transform="translate(882.394531 0)"/>
       <use xlink:href="#DejaVuSans-61" transform="translate(921.603516 0)"/>
       <use xlink:href="#DejaVuSans-62" transform="translate(982.882812 0)"/>
       <use xlink:href="#DejaVuSans-69" transform="translate(1046.359375 0)"/>
       <use xlink:href="#DejaVuSans-6c" transform="translate(1074.142578 0)"/>
       <use xlink:href="#DejaVuSans-69" transform="translate(1101.925781 0)"/>
       <use xlink:href="#DejaVuSans-74" transform="translate(1129.708984 0)"/>
       <use xlink:href="#DejaVuSans-79" transform="translate(1168.917969 0)"/>
      </g>
     </g>
    </g>
    <g id="ytick_3">
     <g id="line2d_11">
      <g>
       <use xlink:href="#mbd518ea32d" x="212.3125" y="101.496875" style="stroke: #000000; stroke-width: 0.8"/>
      </g>
     </g>
     <g id="text_12">
      <!-- Control of Corruption -->
      <g transform="translate(100.185937 105.296094) scale(0.1 -0.1)">
       <defs>
        <path id="DejaVuSans-70" d="M 1159 525 
L 1159 -1331 
L 581 -1331 
L 581 3500 
L 1159 3500 
L 1159 2969 
Q 1341 3281 1617 3432 
Q 1894 3584 2278 3584 
Q 2916 3584 3314 3078 
Q 3713 2572 3713 1747 
Q 3713 922 3314 415 
Q 2916 -91 2278 -91 
Q 1894 -91 1617 61 
Q 1341 213 1159 525 
z
M 3116 1747 
Q 3116 2381 2855 2742 
Q 2594 3103 2138 3103 
Q 1681 3103 1420 2742 
Q 1159 2381 1159 1747 
Q 1159 1113 1420 752 
Q 1681 391 2138 391 
Q 2594 391 2855 752 
Q 3116 1113 3116 1747 
z
" transform="scale(0.015625)"/>
       </defs>
       <use xlink:href="#DejaVuSans-43"/>
       <use xlink:href="#DejaVuSans-6f" transform="translate(69.824219 0)"/>
       <use xlink:href="#DejaVuSans-6e" transform="translate(131.005859 0)"/>
       <use xlink:href="#DejaVuSans-74" transform="translate(194.384766 0)"/>
       <use xlink:href="#DejaVuSans-72" transform="translate(233.59375 0)"/>
       <use xlink:href="#DejaVuSans-6f" transform="translate(272.457031 0)"/>
       <use xlink:href="#DejaVuSans-6c" transform="translate(333.638672 0)"/>
       <use xlink:href="#DejaVuSans-20" transform="translate(361.421875 0)"/>
       <use xlink:href="#DejaVuSans-6f" transform="translate(393.208984 0)"/>
       <use xlink:href="#DejaVuSans-66" transform="translate(454.390625 0)"/>
       <use xlink:href="#DejaVuSans-20" transform="translate(489.595703 0)"/>
       <use xlink:href="#DejaVuSans-43" transform="translate(521.382812 0)"/>
       <use xlink:href="#DejaVuSans-6f" transform="translate(591.207031 0)"/>
       <use xlink:href="#DejaVuSans-72" transform="translate(652.388672 0)"/>
       <use xlink:href="#DejaVuSans-72" transform="translate(691.751953 0)"/>
       <use xlink:href="#DejaVuSans-75" transform="translate(732.865234 0)"/>
       <use xlink:href="#DejaVuSans-70" transform="translate(796.244141 0)"/>
       <use xlink:href="#DejaVuSans-74" transform="translate(859.720703 0)"/>
       <use xlink:href="#DejaVuSans-69" transform="translate(898.929688 0)"/>
       <use xlink:href="#DejaVuSans-6f" transform="translate(926.712891 0)"/>
       <use xlink:href="#DejaVuSans-6e" transform="translate(987.894531 0)"/>
      </g>
     </g>
    </g>
    <g id="ytick_4">
     <g id="line2d_12">
      <g>
       <use xlink:href="#mbd518ea32d" x="212.3125" y="130.736875" style="stroke: #000000; stroke-width: 0.8"/>
      </g>
     </g>
     <g id="text_13">
      <!-- Govt Effectiveness -->
      <g transform="translate(111.7375 134.536094) scale(0.1 -0.1)">
       <defs>
        <path id="DejaVuSans-47" d="M 3809 666 
L 3809 1919 
L 2778 1919 
L 2778 2438 
L 4434 2438 
L 4434 434 
Q 4069 175 3628 42 
Q 3188 -91 2688 -91 
Q 1594 -91 976 548 
Q 359 1188 359 2328 
Q 359 3472 976 4111 
Q 1594 4750 2688 4750 
Q 3144 4750 3555 4637 
Q 3966 4525 4313 4306 
L 4313 3634 
Q 3963 3931 3569 4081 
Q 3175 4231 2741 4231 
Q 1884 4231 1454 3753 
Q 1025 3275 1025 2328 
Q 1025 1384 1454 906 
Q 1884 428 2741 428 
Q 3075 428 3337 486 
Q 3600 544 3809 666 
z
" transform="scale(0.015625)"/>
        <path id="DejaVuSans-76" d="M 191 3500 
L 800 3500 
L 1894 563 
L 2988 3500 
L 3597 3500 
L 2284 0 
L 1503 0 
L 191 3500 
z
" transform="scale(0.015625)"/>
        <path id="DejaVuSans-45" d="M 628 4666 
L 3578 4666 
L 3578 4134 
L 1259 4134 
L 1259 2753 
L 3481 2753 
L 3481 2222 
L 1259 2222 
L 1259 531 
L 3634 531 
L 3634 0 
L 628 0 
L 628 4666 
z
" transform="scale(0.015625)"/>
        <path id="DejaVuSans-73" d="M 2834 3397 
L 2834 2853 
Q 2591 2978 2328 3040 
Q 2066 3103 1784 3103 
Q 1356 3103 1142 2972 
Q 928 2841 928 2578 
Q 928 2378 1081 2264 
Q 1234 2150 1697 2047 
L 1894 2003 
Q 2506 1872 2764 1633 
Q 3022 1394 3022 966 
Q 3022 478 2636 193 
Q 2250 -91 1575 -91 
Q 1294 -91 989 -36 
Q 684 19 347 128 
L 347 722 
Q 666 556 975 473 
Q 1284 391 1588 391 
Q 1994 391 2212 530 
Q 2431 669 2431 922 
Q 2431 1156 2273 1281 
Q 2116 1406 1581 1522 
L 1381 1569 
Q 847 1681 609 1914 
Q 372 2147 372 2553 
Q 372 3047 722 3315 
Q 1072 3584 1716 3584 
Q 2034 3584 2315 3537 
Q 2597 3491 2834 3397 
z
" transform="scale(0.015625)"/>
       </defs>
       <use xlink:href="#DejaVuSans-47"/>
       <use xlink:href="#DejaVuSans-6f" transform="translate(77.490234 0)"/>
       <use xlink:href="#DejaVuSans-76" transform="translate(138.671875 0)"/>
       <use xlink:href="#DejaVuSans-74" transform="translate(197.851562 0)"/>
       <use xlink:href="#DejaVuSans-20" transform="translate(237.060547 0)"/>
       <use xlink:href="#DejaVuSans-45" transform="translate(268.847656 0)"/>
       <use xlink:href="#DejaVuSans-66" transform="translate(332.03125 0)"/>
       <use xlink:href="#DejaVuSans-66" transform="translate(367.236328 0)"/>
       <use xlink:href="#DejaVuSans-65" transform="translate(402.441406 0)"/>
       <use xlink:href="#DejaVuSans-63" transform="translate(463.964844 0)"/>
       <use xlink:href="#DejaVuSans-74" transform="translate(518.945312 0)"/>
       <use xlink:href="#DejaVuSans-69" transform="translate(558.154297 0)"/>
       <use xlink:href="#DejaVuSans-76" transform="translate(585.9375 0)"/>
       <use xlink:href="#DejaVuSans-65" transform="translate(645.117188 0)"/>
       <use xlink:href="#DejaVuSans-6e" transform="translate(706.640625 0)"/>
       <use xlink:href="#DejaVuSans-65" transform="translate(770.019531 0)"/>
       <use xlink:href="#DejaVuSans-73" transform="translate(831.542969 0)"/>
       <use xlink:href="#DejaVuSans-73" transform="translate(883.642578 0)"/>
      </g>
     </g>
    </g>
    <g id="ytick_5">
     <g id="line2d_13">
      <g>
       <use xlink:href="#mbd518ea32d" x="212.3125" y="159.976875" style="stroke: #000000; stroke-width: 0.8"/>
      </g>
     </g>
     <g id="text_14">
      <!-- Political Stability -->
      <g transform="translate(122.770312 163.776094) scale(0.1 -0.1)">
       <defs>
        <path id="DejaVuSans-50" d="M 1259 4147 
L 1259 2394 
L 2053 2394 
Q 2494 2394 2734 2622 
Q 2975 2850 2975 3272 
Q 2975 3691 2734 3919 
Q 2494 4147 2053 4147 
L 1259 4147 
z
M 628 4666 
L 2053 4666 
Q 2838 4666 3239 4311 
Q 3641 3956 3641 3272 
Q 3641 2581 3239 2228 
Q 2838 1875 2053 1875 
L 1259 1875 
L 1259 0 
L 628 0 
L 628 4666 
z
" transform="scale(0.015625)"/>
        <path id="DejaVuSans-53" d="M 3425 4513 
L 3425 3897 
Q 3066 4069 2747 4153 
Q 2428 4238 2131 4238 
Q 1616 4238 1336 4038 
Q 1056 3838 1056 3469 
Q 1056 3159 1242 3001 
Q 1428 2844 1947 2747 
L 2328 2669 
Q 3034 2534 3370 2195 
Q 3706 1856 3706 1288 
Q 3706 609 3251 259 
Q 2797 -91 1919 -91 
Q 1588 -91 1214 -16 
Q 841 59 441 206 
L 441 856 
Q 825 641 1194 531 
Q 1563 422 1919 422 
Q 2459 422 2753 634 
Q 3047 847 3047 1241 
Q 3047 1584 2836 1778 
Q 2625 1972 2144 2069 
L 1759 2144 
Q 1053 2284 737 2584 
Q 422 2884 422 3419 
Q 422 4038 858 4394 
Q 1294 4750 2059 4750 
Q 2388 4750 2728 4690 
Q 3069 4631 3425 4513 
z
" transform="scale(0.015625)"/>
       </defs>
       <use xlink:href="#DejaVuSans-50"/>
       <use xlink:href="#DejaVuSans-6f" transform="translate(56.677734 0)"/>
       <use xlink:href="#DejaVuSans-6c" transform="translate(117.859375 0)"/>
       <use xlink:href="#DejaVuSans-69" transform="translate(145.642578 0)"/>
       <use xlink:href="#DejaVuSans-74" transform="translate(173.425781 0)"/>
       <use xlink:href="#DejaVuSans-69" transform="translate(212.634766 0)"/>
       <use xlink:href="#DejaVuSans-63" transform="translate(240.417969 0)"/>
       <use xlink:href="#DejaVuSans-61" transform="translate(295.398438 0)"/>
       <use xlink:href="#DejaVuSans-6c" transform="translate(356.677734 0)"/>
       <use xlink:href="#DejaVuSans-20" transform="translate(384.460938 0)"/>
       <use xlink:href="#DejaVuSans-53" transform="translate(416.248047 0)"/>
       <use xlink:href="#DejaVuSans-74" transform="translate(479.724609 0)"/>
       <use xlink:href="#DejaVuSans-61" transform="translate(518.933594 0)"/>
       <use xlink:href="#DejaVuSans-62" transform="translate(580.212891 0)"/>
       <use xlink:href="#DejaVuSans-69" transform="translate(643.689453 0)"/>
       <use xlink:href="#DejaVuSans-6c" transform="translate(671.472656 0)"/>
       <use xlink:href="#DejaVuSans-69" transform="translate(699.255859 0)"/>
       <use xlink:href="#DejaVuSans-74" transform="translate(727.039062 0)"/>
       <use xlink:href="#DejaVuSans-79" transform="translate(766.248047 0)"/>
      </g>
     </g>
    </g>
    <g id="ytick_6">
     <g id="line2d_14">
      <g>
       <use xlink:href="#mbd518ea32d" x="212.3125" y="189.216875" style="stroke: #000000; stroke-width: 0.8"/>
      </g>
     </g>
     <g id="text_15">
      <!-- Life Expectancy Years -->
      <g transform="translate(96.507812 193.016094) scale(0.1 -0.1)">
       <defs>
        <path id="DejaVuSans-78" d="M 3513 3500 
L 2247 1797 
L 3578 0 
L 2900 0 
L 1881 1375 
L 863 0 
L 184 0 
L 1544 1831 
L 300 3500 
L 978 3500 
L 1906 2253 
L 2834 3500 
L 3513 3500 
z
" transform="scale(0.015625)"/>
        <path id="DejaVuSans-59" d="M -13 4666 
L 666 4666 
L 1959 2747 
L 3244 4666 
L 3922 4666 
L 2272 2222 
L 2272 0 
L 1638 0 
L 1638 2222 
L -13 4666 
z
" transform="scale(0.015625)"/>
       </defs>
       <use xlink:href="#DejaVuSans-4c"/>
       <use xlink:href="#DejaVuSans-69" transform="translate(55.712891 0)"/>
       <use xlink:href="#DejaVuSans-66" transform="translate(83.496094 0)"/>
       <use xlink:href="#DejaVuSans-65" transform="translate(118.701172 0)"/>
       <use xlink:href="#DejaVuSans-20" transform="translate(180.224609 0)"/>
       <use xlink:href="#DejaVuSans-45" transform="translate(212.011719 0)"/>
       <use xlink:href="#DejaVuSans-78" transform="translate(275.195312 0)"/>
       <use xlink:href="#DejaVuSans-70" transform="translate(334.375 0)"/>
       <use xlink:href="#DejaVuSans-65" transform="translate(397.851562 0)"/>
       <use xlink:href="#DejaVuSans-63" transform="translate(459.375 0)"/>
       <use xlink:href="#DejaVuSans-74" transform="translate(514.355469 0)"/>
       <use xlink:href="#DejaVuSans-61" transform="translate(553.564453 0)"/>
       <use xlink:href="#DejaVuSans-6e" transform="translate(614.84375 0)"/>
       <use xlink:href="#DejaVuSans-63" transform="translate(678.222656 0)"/>
       <use xlink:href="#DejaVuSans-79" transform="translate(733.203125 0)"/>
       <use xlink:href="#DejaVuSans-20" transform="translate(792.382812 0)"/>
       <use xlink:href="#DejaVuSans-59" transform="translate(824.169922 0)"/>
       <use xlink:href="#DejaVuSans-65" transform="translate(872.003906 0)"/>
       <use xlink:href="#DejaVuSans-61" transform="translate(933.527344 0)"/>
       <use xlink:href="#DejaVuSans-72" transform="translate(994.806641 0)"/>
       <use xlink:href="#DejaVuSans-73" transform="translate(1035.919922 0)"/>
      </g>
     </g>
    </g>
    <g id="ytick_7">
     <g id="line2d_15">
      <g>
       <use xlink:href="#mbd518ea32d" x="212.3125" y="218.456875" style="stroke: #000000; stroke-width: 0.8"/>
      </g>
     </g>
     <g id="text_16">
      <!-- Education Expenditure percent GDP -->
      <g transform="translate(25.717187 222.256094) scale(0.1 -0.1)">
       <defs>
        <path id="DejaVuSans-44" d="M 1259 4147 
L 1259 519 
L 2022 519 
Q 2988 519 3436 956 
Q 3884 1394 3884 2338 
Q 3884 3275 3436 3711 
Q 2988 4147 2022 4147 
L 1259 4147 
z
M 628 4666 
L 1925 4666 
Q 3281 4666 3915 4102 
Q 4550 3538 4550 2338 
Q 4550 1131 3912 565 
Q 3275 0 1925 0 
L 628 0 
L 628 4666 
z
" transform="scale(0.015625)"/>
       </defs>
       <use xlink:href="#DejaVuSans-45"/>
       <use xlink:href="#DejaVuSans-64" transform="translate(63.183594 0)"/>
       <use xlink:href="#DejaVuSans-75" transform="translate(126.660156 0)"/>
       <use xlink:href="#DejaVuSans-63" transform="translate(190.039062 0)"/>
       <use xlink:href="#DejaVuSans-61" transform="translate(245.019531 0)"/>
       <use xlink:href="#DejaVuSans-74" transform="translate(306.298828 0)"/>
       <use xlink:href="#DejaVuSans-69" transform="translate(345.507812 0)"/>
       <use xlink:href="#DejaVuSans-6f" transform="translate(373.291016 0)"/>
       <use xlink:href="#DejaVuSans-6e" transform="translate(434.472656 0)"/>
       <use xlink:href="#DejaVuSans-20" transform="translate(497.851562 0)"/>
       <use xlink:href="#DejaVuSans-45" transform="translate(529.638672 0)"/>
       <use xlink:href="#DejaVuSans-78" transform="translate(592.822266 0)"/>
       <use xlink:href="#DejaVuSans-70" transform="translate(652.001953 0)"/>
       <use xlink:href="#DejaVuSans-65" transform="translate(715.478516 0)"/>
       <use xlink:href="#DejaVuSans-6e" transform="translate(777.001953 0)"/>
       <use xlink:href="#DejaVuSans-64" transform="translate(840.380859 0)"/>
       <use xlink:href="#DejaVuSans-69" transform="translate(903.857422 0)"/>
       <use xlink:href="#DejaVuSans-74" transform="translate(931.640625 0)"/>
       <use xlink:href="#DejaVuSans-75" transform="translate(970.849609 0)"/>
       <use xlink:href="#DejaVuSans-72" transform="translate(1034.228516 0)"/>
       <use xlink:href="#DejaVuSans-65" transform="translate(1073.091797 0)"/>
       <use xlink:href="#DejaVuSans-20" transform="translate(1134.615234 0)"/>
       <use xlink:href="#DejaVuSans-70" transform="translate(1166.402344 0)"/>
       <use xlink:href="#DejaVuSans-65" transform="translate(1229.878906 0)"/>
       <use xlink:href="#DejaVuSans-72" transform="translate(1291.402344 0)"/>
       <use xlink:href="#DejaVuSans-63" transform="translate(1330.265625 0)"/>
       <use xlink:href="#DejaVuSans-65" transform="translate(1385.246094 0)"/>
       <use xlink:href="#DejaVuSans-6e" transform="translate(1446.769531 0)"/>
       <use xlink:href="#DejaVuSans-74" transform="translate(1510.148438 0)"/>
       <use xlink:href="#DejaVuSans-20" transform="translate(1549.357422 0)"/>
       <use xlink:href="#DejaVuSans-47" transform="translate(1581.144531 0)"/>
       <use xlink:href="#DejaVuSans-44" transform="translate(1658.634766 0)"/>
       <use xlink:href="#DejaVuSans-50" transform="translate(1735.636719 0)"/>
      </g>
     </g>
    </g>
    <g id="ytick_8">
     <g id="line2d_16">
      <g>
       <use xlink:href="#mbd518ea32d" x="212.3125" y="247.696875" style="stroke: #000000; stroke-width: 0.8"/>
      </g>
     </g>
     <g id="text_17">
      <!-- Freedom to make life choices -->
      <g transform="translate(58.860938 251.496094) scale(0.1 -0.1)">
       <defs>
        <path id="DejaVuSans-46" d="M 628 4666 
L 3309 4666 
L 3309 4134 
L 1259 4134 
L 1259 2759 
L 3109 2759 
L 3109 2228 
L 1259 2228 
L 1259 0 
L 628 0 
L 628 4666 
z
" transform="scale(0.015625)"/>
        <path id="DejaVuSans-6d" d="M 3328 2828 
Q 3544 3216 3844 3400 
Q 4144 3584 4550 3584 
Q 5097 3584 5394 3201 
Q 5691 2819 5691 2113 
L 5691 0 
L 5113 0 
L 5113 2094 
Q 5113 2597 4934 2840 
Q 4756 3084 4391 3084 
Q 3944 3084 3684 2787 
Q 3425 2491 3425 1978 
L 3425 0 
L 2847 0 
L 2847 2094 
Q 2847 2600 2669 2842 
Q 2491 3084 2119 3084 
Q 1678 3084 1418 2786 
Q 1159 2488 1159 1978 
L 1159 0 
L 581 0 
L 581 3500 
L 1159 3500 
L 1159 2956 
Q 1356 3278 1631 3431 
Q 1906 3584 2284 3584 
Q 2666 3584 2933 3390 
Q 3200 3197 3328 2828 
z
" transform="scale(0.015625)"/>
        <path id="DejaVuSans-6b" d="M 581 4863 
L 1159 4863 
L 1159 1991 
L 2875 3500 
L 3609 3500 
L 1753 1863 
L 3688 0 
L 2938 0 
L 1159 1709 
L 1159 0 
L 581 0 
L 581 4863 
z
" transform="scale(0.015625)"/>
        <path id="DejaVuSans-68" d="M 3513 2113 
L 3513 0 
L 2938 0 
L 2938 2094 
Q 2938 2591 2744 2837 
Q 2550 3084 2163 3084 
Q 1697 3084 1428 2787 
Q 1159 2491 1159 1978 
L 1159 0 
L 581 0 
L 581 4863 
L 1159 4863 
L 1159 2956 
Q 1366 3272 1645 3428 
Q 1925 3584 2291 3584 
Q 2894 3584 3203 3211 
Q 3513 2838 3513 2113 
z
" transform="scale(0.015625)"/>
       </defs>
       <use xlink:href="#DejaVuSans-46"/>
       <use xlink:href="#DejaVuSans-72" transform="translate(50.269531 0)"/>
       <use xlink:href="#DejaVuSans-65" transform="translate(89.132812 0)"/>
       <use xlink:href="#DejaVuSans-65" transform="translate(150.65625 0)"/>
       <use xlink:href="#DejaVuSans-64" transform="translate(212.179688 0)"/>
       <use xlink:href="#DejaVuSans-6f" transform="translate(275.65625 0)"/>
       <use xlink:href="#DejaVuSans-6d" transform="translate(336.837891 0)"/>
       <use xlink:href="#DejaVuSans-20" transform="translate(434.25 0)"/>
       <use xlink:href="#DejaVuSans-74" transform="translate(466.037109 0)"/>
       <use xlink:href="#DejaVuSans-6f" transform="translate(505.246094 0)"/>
       <use xlink:href="#DejaVuSans-20" transform="translate(566.427734 0)"/>
       <use xlink:href="#DejaVuSans-6d" transform="translate(598.214844 0)"/>
       <use xlink:href="#DejaVuSans-61" transform="translate(695.626953 0)"/>
       <use xlink:href="#DejaVuSans-6b" transform="translate(756.90625 0)"/>
       <use xlink:href="#DejaVuSans-65" transform="translate(811.191406 0)"/>
       <use xlink:href="#DejaVuSans-20" transform="translate(872.714844 0)"/>
       <use xlink:href="#DejaVuSans-6c" transform="translate(904.501953 0)"/>
       <use xlink:href="#DejaVuSans-69" transform="translate(932.285156 0)"/>
       <use xlink:href="#DejaVuSans-66" transform="translate(960.068359 0)"/>
       <use xlink:href="#DejaVuSans-65" transform="translate(995.273438 0)"/>
       <use xlink:href="#DejaVuSans-20" transform="translate(1056.796875 0)"/>
       <use xlink:href="#DejaVuSans-63" transform="translate(1088.583984 0)"/>
       <use xlink:href="#DejaVuSans-68" transform="translate(1143.564453 0)"/>
       <use xlink:href="#DejaVuSans-6f" transform="translate(1206.943359 0)"/>
       <use xlink:href="#DejaVuSans-69" transform="translate(1268.125 0)"/>
       <use xlink:href="#DejaVuSans-63" transform="translate(1295.908203 0)"/>
       <use xlink:href="#DejaVuSans-65" transform="translate(1350.888672 0)"/>
       <use xlink:href="#DejaVuSans-73" transform="translate(1412.412109 0)"/>
      </g>
     </g>
    </g>
    <g id="ytick_9">
     <g id="line2d_17">
      <g>
       <use xlink:href="#mbd518ea32d" x="212.3125" y="276.936875" style="stroke: #000000; stroke-width: 0.8"/>
      </g>
     </g>
     <g id="text_18">
      <!-- Unemployment Rate percent -->
      <g transform="translate(60.86875 280.736094) scale(0.1 -0.1)">
       <defs>
        <path id="DejaVuSans-55" d="M 556 4666 
L 1191 4666 
L 1191 1831 
Q 1191 1081 1462 751 
Q 1734 422 2344 422 
Q 2950 422 3222 751 
Q 3494 1081 3494 1831 
L 3494 4666 
L 4128 4666 
L 4128 1753 
Q 4128 841 3676 375 
Q 3225 -91 2344 -91 
Q 1459 -91 1007 375 
Q 556 841 556 1753 
L 556 4666 
z
" transform="scale(0.015625)"/>
       </defs>
       <use xlink:href="#DejaVuSans-55"/>
       <use xlink:href="#DejaVuSans-6e" transform="translate(73.193359 0)"/>
       <use xlink:href="#DejaVuSans-65" transform="translate(136.572266 0)"/>
       <use xlink:href="#DejaVuSans-6d" transform="translate(198.095703 0)"/>
       <use xlink:href="#DejaVuSans-70" transform="translate(295.507812 0)"/>
       <use xlink:href="#DejaVuSans-6c" transform="translate(358.984375 0)"/>
       <use xlink:href="#DejaVuSans-6f" transform="translate(386.767578 0)"/>
       <use xlink:href="#DejaVuSans-79" transform="translate(447.949219 0)"/>
       <use xlink:href="#DejaVuSans-6d" transform="translate(507.128906 0)"/>
       <use xlink:href="#DejaVuSans-65" transform="translate(604.541016 0)"/>
       <use xlink:href="#DejaVuSans-6e" transform="translate(666.064453 0)"/>
       <use xlink:href="#DejaVuSans-74" transform="translate(729.443359 0)"/>
       <use xlink:href="#DejaVuSans-20" transform="translate(768.652344 0)"/>
       <use xlink:href="#DejaVuSans-52" transform="translate(800.439453 0)"/>
       <use xlink:href="#DejaVuSans-61" transform="translate(867.671875 0)"/>
       <use xlink:href="#DejaVuSans-74" transform="translate(928.951172 0)"/>
       <use xlink:href="#DejaVuSans-65" transform="translate(968.160156 0)"/>
       <use xlink:href="#DejaVuSans-20" transform="translate(1029.683594 0)"/>
       <use xlink:href="#DejaVuSans-70" transform="translate(1061.470703 0)"/>
       <use xlink:href="#DejaVuSans-65" transform="translate(1124.947266 0)"/>
       <use xlink:href="#DejaVuSans-72" transform="translate(1186.470703 0)"/>
       <use xlink:href="#DejaVuSans-63" transform="translate(1225.333984 0)"/>
       <use xlink:href="#DejaVuSans-65" transform="translate(1280.314453 0)"/>
       <use xlink:href="#DejaVuSans-6e" transform="translate(1341.837891 0)"/>
       <use xlink:href="#DejaVuSans-74" transform="translate(1405.216797 0)"/>
      </g>
     </g>
    </g>
    <g id="ytick_10">
     <g id="line2d_18">
      <g>
       <use xlink:href="#mbd518ea32d" x="212.3125" y="306.176875" style="stroke: #000000; stroke-width: 0.8"/>
      </g>
     </g>
     <g id="text_19">
      <!-- Social support -->
      <g transform="translate(134.090625 309.976094) scale(0.1 -0.1)">
       <use xlink:href="#DejaVuSans-53"/>
       <use xlink:href="#DejaVuSans-6f" transform="translate(63.476562 0)"/>
       <use xlink:href="#DejaVuSans-63" transform="translate(124.658203 0)"/>
       <use xlink:href="#DejaVuSans-69" transform="translate(179.638672 0)"/>
       <use xlink:href="#DejaVuSans-61" transform="translate(207.421875 0)"/>
       <use xlink:href="#DejaVuSans-6c" transform="translate(268.701172 0)"/>
       <use xlink:href="#DejaVuSans-20" transform="translate(296.484375 0)"/>
       <use xlink:href="#DejaVuSans-73" transform="translate(328.271484 0)"/>
       <use xlink:href="#DejaVuSans-75" transform="translate(380.371094 0)"/>
       <use xlink:href="#DejaVuSans-70" transform="translate(443.75 0)"/>
       <use xlink:href="#DejaVuSans-70" transform="translate(507.226562 0)"/>
       <use xlink:href="#DejaVuSans-6f" transform="translate(570.703125 0)"/>
       <use xlink:href="#DejaVuSans-72" transform="translate(631.884766 0)"/>
       <use xlink:href="#DejaVuSans-74" transform="translate(672.998047 0)"/>
      </g>
     </g>
    </g>
    <g id="ytick_11">
     <g id="line2d_19">
      <g>
       <use xlink:href="#mbd518ea32d" x="212.3125" y="335.416875" style="stroke: #000000; stroke-width: 0.8"/>
      </g>
     </g>
     <g id="text_20">
      <!-- FDI Net Inflows percent GDP -->
      <g transform="translate(63.776562 339.216094) scale(0.1 -0.1)">
       <defs>
        <path id="DejaVuSans-49" d="M 628 4666 
L 1259 4666 
L 1259 0 
L 628 0 
L 628 4666 
z
" transform="scale(0.015625)"/>
        <path id="DejaVuSans-4e" d="M 628 4666 
L 1478 4666 
L 3547 763 
L 3547 4666 
L 4159 4666 
L 4159 0 
L 3309 0 
L 1241 3903 
L 1241 0 
L 628 0 
L 628 4666 
z
" transform="scale(0.015625)"/>
       </defs>
       <use xlink:href="#DejaVuSans-46"/>
       <use xlink:href="#DejaVuSans-44" transform="translate(57.519531 0)"/>
       <use xlink:href="#DejaVuSans-49" transform="translate(134.521484 0)"/>
       <use xlink:href="#DejaVuSans-20" transform="translate(164.013672 0)"/>
       <use xlink:href="#DejaVuSans-4e" transform="translate(195.800781 0)"/>
       <use xlink:href="#DejaVuSans-65" transform="translate(270.605469 0)"/>
       <use xlink:href="#DejaVuSans-74" transform="translate(332.128906 0)"/>
       <use xlink:href="#DejaVuSans-20" transform="translate(371.337891 0)"/>
       <use xlink:href="#DejaVuSans-49" transform="translate(403.125 0)"/>
       <use xlink:href="#DejaVuSans-6e" transform="translate(432.617188 0)"/>
       <use xlink:href="#DejaVuSans-66" transform="translate(495.996094 0)"/>
       <use xlink:href="#DejaVuSans-6c" transform="translate(531.201172 0)"/>
       <use xlink:href="#DejaVuSans-6f" transform="translate(558.984375 0)"/>
       <use xlink:href="#DejaVuSans-77" transform="translate(620.166016 0)"/>
       <use xlink:href="#DejaVuSans-73" transform="translate(701.953125 0)"/>
       <use xlink:href="#DejaVuSans-20" transform="translate(754.052734 0)"/>
       <use xlink:href="#DejaVuSans-70" transform="translate(785.839844 0)"/>
       <use xlink:href="#DejaVuSans-65" transform="translate(849.316406 0)"/>
       <use xlink:href="#DejaVuSans-72" transform="translate(910.839844 0)"/>
       <use xlink:href="#DejaVuSans-63" transform="translate(949.703125 0)"/>
       <use xlink:href="#DejaVuSans-65" transform="translate(1004.683594 0)"/>
       <use xlink:href="#DejaVuSans-6e" transform="translate(1066.207031 0)"/>
       <use xlink:href="#DejaVuSans-74" transform="translate(1129.585938 0)"/>
       <use xlink:href="#DejaVuSans-20" transform="translate(1168.794922 0)"/>
       <use xlink:href="#DejaVuSans-47" transform="translate(1200.582031 0)"/>
       <use xlink:href="#DejaVuSans-44" transform="translate(1278.072266 0)"/>
       <use xlink:href="#DejaVuSans-50" transform="translate(1355.074219 0)"/>
      </g>
     </g>
    </g>
    <g id="ytick_12">
     <g id="line2d_20">
      <g>
       <use xlink:href="#mbd518ea32d" x="212.3125" y="364.656875" style="stroke: #000000; stroke-width: 0.8"/>
      </g>
     </g>
     <g id="text_21">
      <!-- Inflation Annual percent -->
      <g transform="translate(85.03125 368.456094) scale(0.1 -0.1)">
       <use xlink:href="#DejaVuSans-49"/>
       <use xlink:href="#DejaVuSans-6e" transform="translate(29.492188 0)"/>
       <use xlink:href="#DejaVuSans-66" transform="translate(92.871094 0)"/>
       <use xlink:href="#DejaVuSans-6c" transform="translate(128.076172 0)"/>
       <use xlink:href="#DejaVuSans-61" transform="translate(155.859375 0)"/>
       <use xlink:href="#DejaVuSans-74" transform="translate(217.138672 0)"/>
       <use xlink:href="#DejaVuSans-69" transform="translate(256.347656 0)"/>
       <use xlink:href="#DejaVuSans-6f" transform="translate(284.130859 0)"/>
       <use xlink:href="#DejaVuSans-6e" transform="translate(345.3125 0)"/>
       <use xlink:href="#DejaVuSans-20" transform="translate(408.691406 0)"/>
       <use xlink:href="#DejaVuSans-41" transform="translate(440.478516 0)"/>
       <use xlink:href="#DejaVuSans-6e" transform="translate(508.886719 0)"/>
       <use xlink:href="#DejaVuSans-6e" transform="translate(572.265625 0)"/>
       <use xlink:href="#DejaVuSans-75" transform="translate(635.644531 0)"/>
       <use xlink:href="#DejaVuSans-61" transform="translate(699.023438 0)"/>
       <use xlink:href="#DejaVuSans-6c" transform="translate(760.302734 0)"/>
       <use xlink:href="#DejaVuSans-20" transform="translate(788.085938 0)"/>
       <use xlink:href="#DejaVuSans-70" transform="translate(819.873047 0)"/>
       <use xlink:href="#DejaVuSans-65" transform="translate(883.349609 0)"/>
       <use xlink:href="#DejaVuSans-72" transform="translate(944.873047 0)"/>
       <use xlink:href="#DejaVuSans-63" transform="translate(983.736328 0)"/>
       <use xlink:href="#DejaVuSans-65" transform="translate(1038.716797 0)"/>
       <use xlink:href="#DejaVuSans-6e" transform="translate(1100.240234 0)"/>
       <use xlink:href="#DejaVuSans-74" transform="translate(1163.619141 0)"/>
      </g>
     </g>
    </g>
    <g id="ytick_13">
     <g id="line2d_21">
      <g>
       <use xlink:href="#mbd518ea32d" x="212.3125" y="393.896875" style="stroke: #000000; stroke-width: 0.8"/>
      </g>
     </g>
     <g id="text_22">
      <!-- Perceptions of corruption -->
      <g transform="translate(79.742188 397.696094) scale(0.1 -0.1)">
       <use xlink:href="#DejaVuSans-50"/>
       <use xlink:href="#DejaVuSans-65" transform="translate(56.677734 0)"/>
       <use xlink:href="#DejaVuSans-72" transform="translate(118.201172 0)"/>
       <use xlink:href="#DejaVuSans-63" transform="translate(157.064453 0)"/>
       <use xlink:href="#DejaVuSans-65" transform="translate(212.044922 0)"/>
       <use xlink:href="#DejaVuSans-70" transform="translate(273.568359 0)"/>
       <use xlink:href="#DejaVuSans-74" transform="translate(337.044922 0)"/>
       <use xlink:href="#DejaVuSans-69" transform="translate(376.253906 0)"/>
       <use xlink:href="#DejaVuSans-6f" transform="translate(404.037109 0)"/>
       <use xlink:href="#DejaVuSans-6e" transform="translate(465.21875 0)"/>
       <use xlink:href="#DejaVuSans-73" transform="translate(528.597656 0)"/>
       <use xlink:href="#DejaVuSans-20" transform="translate(580.697266 0)"/>
       <use xlink:href="#DejaVuSans-6f" transform="translate(612.484375 0)"/>
       <use xlink:href="#DejaVuSans-66" transform="translate(673.666016 0)"/>
       <use xlink:href="#DejaVuSans-20" transform="translate(708.871094 0)"/>
       <use xlink:href="#DejaVuSans-63" transform="translate(740.658203 0)"/>
       <use xlink:href="#DejaVuSans-6f" transform="translate(795.638672 0)"/>
       <use xlink:href="#DejaVuSans-72" transform="translate(856.820312 0)"/>
       <use xlink:href="#DejaVuSans-72" transform="translate(896.183594 0)"/>
       <use xlink:href="#DejaVuSans-75" transform="translate(937.296875 0)"/>
       <use xlink:href="#DejaVuSans-70" transform="translate(1000.675781 0)"/>
       <use xlink:href="#DejaVuSans-74" transform="translate(1064.152344 0)"/>
       <use xlink:href="#DejaVuSans-69" transform="translate(1103.361328 0)"/>
       <use xlink:href="#DejaVuSans-6f" transform="translate(1131.144531 0)"/>
       <use xlink:href="#DejaVuSans-6e" transform="translate(1192.326172 0)"/>
      </g>
     </g>
    </g>
    <g id="ytick_14">
     <g id="line2d_22">
      <g>
       <use xlink:href="#mbd518ea32d" x="212.3125" y="423.136875" style="stroke: #000000; stroke-width: 0.8"/>
      </g>
     </g>
     <g id="text_23">
      <!-- Generosity -->
      <g transform="translate(151.089063 426.936094) scale(0.1 -0.1)">
       <use xlink:href="#DejaVuSans-47"/>
       <use xlink:href="#DejaVuSans-65" transform="translate(77.490234 0)"/>
       <use xlink:href="#DejaVuSans-6e" transform="translate(139.013672 0)"/>
       <use xlink:href="#DejaVuSans-65" transform="translate(202.392578 0)"/>
       <use xlink:href="#DejaVuSans-72" transform="translate(263.916016 0)"/>
       <use xlink:href="#DejaVuSans-6f" transform="translate(302.779297 0)"/>
       <use xlink:href="#DejaVuSans-73" transform="translate(363.960938 0)"/>
       <use xlink:href="#DejaVuSans-69" transform="translate(416.060547 0)"/>
       <use xlink:href="#DejaVuSans-74" transform="translate(443.84375 0)"/>
       <use xlink:href="#DejaVuSans-79" transform="translate(483.052734 0)"/>
      </g>
     </g>
    </g>
    <g id="ytick_15">
     <g id="line2d_23">
      <g>
       <use xlink:href="#mbd518ea32d" x="212.3125" y="452.376875" style="stroke: #000000; stroke-width: 0.8"/>
      </g>
     </g>
     <g id="text_24">
      <!-- GDP Per Capita -->
      <g transform="translate(129.260938 456.176094) scale(0.1 -0.1)">
       <use xlink:href="#DejaVuSans-47"/>
       <use xlink:href="#DejaVuSans-44" transform="translate(77.490234 0)"/>
       <use xlink:href="#DejaVuSans-50" transform="translate(154.492188 0)"/>
       <use xlink:href="#DejaVuSans-20" transform="translate(214.794922 0)"/>
       <use xlink:href="#DejaVuSans-50" transform="translate(246.582031 0)"/>
       <use xlink:href="#DejaVuSans-65" transform="translate(303.259766 0)"/>
       <use xlink:href="#DejaVuSans-72" transform="translate(364.783203 0)"/>
       <use xlink:href="#DejaVuSans-20" transform="translate(405.896484 0)"/>
       <use xlink:href="#DejaVuSans-43" transform="translate(437.683594 0)"/>
       <use xlink:href="#DejaVuSans-61" transform="translate(507.507812 0)"/>
       <use xlink:href="#DejaVuSans-70" transform="translate(568.787109 0)"/>
       <use xlink:href="#DejaVuSans-69" transform="translate(632.263672 0)"/>
       <use xlink:href="#DejaVuSans-74" transform="translate(660.046875 0)"/>
       <use xlink:href="#DejaVuSans-61" transform="translate(699.255859 0)"/>
      </g>
     </g>
    </g>
    <g id="ytick_16">
     <g id="line2d_24">
      <g>
       <use xlink:href="#mbd518ea32d" x="212.3125" y="481.616875" style="stroke: #000000; stroke-width: 0.8"/>
      </g>
     </g>
     <g id="text_25">
      <!-- GDP Current USD -->
      <g transform="translate(118.557812 485.416094) scale(0.1 -0.1)">
       <use xlink:href="#DejaVuSans-47"/>
       <use xlink:href="#DejaVuSans-44" transform="translate(77.490234 0)"/>
       <use xlink:href="#DejaVuSans-50" transform="translate(154.492188 0)"/>
       <use xlink:href="#DejaVuSans-20" transform="translate(214.794922 0)"/>
       <use xlink:href="#DejaVuSans-43" transform="translate(246.582031 0)"/>
       <use xlink:href="#DejaVuSans-75" transform="translate(316.40625 0)"/>
       <use xlink:href="#DejaVuSans-72" transform="translate(379.785156 0)"/>
       <use xlink:href="#DejaVuSans-72" transform="translate(419.148438 0)"/>
       <use xlink:href="#DejaVuSans-65" transform="translate(458.011719 0)"/>
       <use xlink:href="#DejaVuSans-6e" transform="translate(519.535156 0)"/>
       <use xlink:href="#DejaVuSans-74" transform="translate(582.914062 0)"/>
       <use xlink:href="#DejaVuSans-20" transform="translate(622.123047 0)"/>
       <use xlink:href="#DejaVuSans-55" transform="translate(653.910156 0)"/>
       <use xlink:href="#DejaVuSans-53" transform="translate(727.103516 0)"/>
       <use xlink:href="#DejaVuSans-44" transform="translate(790.580078 0)"/>
      </g>
     </g>
    </g>
    <g id="ytick_17">
     <g id="line2d_25">
      <g>
       <use xlink:href="#mbd518ea32d" x="212.3125" y="510.856875" style="stroke: #000000; stroke-width: 0.8"/>
      </g>
     </g>
     <g id="text_26">
      <!-- Health Expenditure percent GDP -->
      <g transform="translate(42.665625 514.656094) scale(0.1 -0.1)">
       <defs>
        <path id="DejaVuSans-48" d="M 628 4666 
L 1259 4666 
L 1259 2753 
L 3553 2753 
L 3553 4666 
L 4184 4666 
L 4184 0 
L 3553 0 
L 3553 2222 
L 1259 2222 
L 1259 0 
L 628 0 
L 628 4666 
z
" transform="scale(0.015625)"/>
       </defs>
       <use xlink:href="#DejaVuSans-48"/>
       <use xlink:href="#DejaVuSans-65" transform="translate(75.195312 0)"/>
       <use xlink:href="#DejaVuSans-61" transform="translate(136.71875 0)"/>
       <use xlink:href="#DejaVuSans-6c" transform="translate(197.998047 0)"/>
       <use xlink:href="#DejaVuSans-74" transform="translate(225.78125 0)"/>
       <use xlink:href="#DejaVuSans-68" transform="translate(264.990234 0)"/>
       <use xlink:href="#DejaVuSans-20" transform="translate(328.369141 0)"/>
       <use xlink:href="#DejaVuSans-45" transform="translate(360.15625 0)"/>
       <use xlink:href="#DejaVuSans-78" transform="translate(423.339844 0)"/>
       <use xlink:href="#DejaVuSans-70" transform="translate(482.519531 0)"/>
       <use xlink:href="#DejaVuSans-65" transform="translate(545.996094 0)"/>
       <use xlink:href="#DejaVuSans-6e" transform="translate(607.519531 0)"/>
       <use xlink:href="#DejaVuSans-64" transform="translate(670.898438 0)"/>
       <use xlink:href="#DejaVuSans-69" transform="translate(734.375 0)"/>
       <use xlink:href="#DejaVuSans-74" transform="translate(762.158203 0)"/>
       <use xlink:href="#DejaVuSans-75" transform="translate(801.367188 0)"/>
       <use xlink:href="#DejaVuSans-72" transform="translate(864.746094 0)"/>
       <use xlink:href="#DejaVuSans-65" transform="translate(903.609375 0)"/>
       <use xlink:href="#DejaVuSans-20" transform="translate(965.132812 0)"/>
       <use xlink:href="#DejaVuSans-70" transform="translate(996.919922 0)"/>
       <use xlink:href="#DejaVuSans-65" transform="translate(1060.396484 0)"/>
       <use xlink:href="#DejaVuSans-72" transform="translate(1121.919922 0)"/>
       <use xlink:href="#DejaVuSans-63" transform="translate(1160.783203 0)"/>
       <use xlink:href="#DejaVuSans-65" transform="translate(1215.763672 0)"/>
       <use xlink:href="#DejaVuSans-6e" transform="translate(1277.287109 0)"/>
       <use xlink:href="#DejaVuSans-74" transform="translate(1340.666016 0)"/>
       <use xlink:href="#DejaVuSans-20" transform="translate(1379.875 0)"/>
       <use xlink:href="#DejaVuSans-47" transform="translate(1411.662109 0)"/>
       <use xlink:href="#DejaVuSans-44" transform="translate(1489.152344 0)"/>
       <use xlink:href="#DejaVuSans-50" transform="translate(1566.154297 0)"/>
      </g>
     </g>
    </g>
    <g id="text_27">
     <!-- Indicator -->
     <g transform="translate(18.597656 310.079844) rotate(-90) scale(0.15 -0.15)">
      <use xlink:href="#DejaVuSans-49"/>
      <use xlink:href="#DejaVuSans-6e" transform="translate(29.492188 0)"/>
      <use xlink:href="#DejaVuSans-64" transform="translate(92.871094 0)"/>
      <use xlink:href="#DejaVuSans-69" transform="translate(156.347656 0)"/>
      <use xlink:href="#DejaVuSans-63" transform="translate(184.130859 0)"/>
      <use xlink:href="#DejaVuSans-61" transform="translate(239.111328 0)"/>
      <use xlink:href="#DejaVuSans-74" transform="translate(300.390625 0)"/>
      <use xlink:href="#DejaVuSans-6f" transform="translate(339.599609 0)"/>
      <use xlink:href="#DejaVuSans-72" transform="translate(400.78125 0)"/>
     </g>
    </g>
   </g>
   <g id="line2d_26">
    <path clip-path="url(#pe7a7e36826)" style="fill: none; stroke: #424242; stroke-width: 2.25; stroke-linecap: square"/>
   </g>
   <g id="line2d_27">
    <path clip-path="url(#pe7a7e36826)" style="fill: none; stroke: #424242; stroke-width: 2.25; stroke-linecap: square"/>
   </g>
   <g id="line2d_28">
    <path clip-path="url(#pe7a7e36826)" style="fill: none; stroke: #424242; stroke-width: 2.25; stroke-linecap: square"/>
   </g>
   <g id="line2d_29">
    <path clip-path="url(#pe7a7e36826)" style="fill: none; stroke: #424242; stroke-width: 2.25; stroke-linecap: square"/>
   </g>
   <g id="line2d_30">
    <path clip-path="url(#pe7a7e36826)" style="fill: none; stroke: #424242; stroke-width: 2.25; stroke-linecap: square"/>
   </g>
   <g id="line2d_31">
    <path clip-path="url(#pe7a7e36826)" style="fill: none; stroke: #424242; stroke-width: 2.25; stroke-linecap: square"/>
   </g>
   <g id="line2d_32">
    <path clip-path="url(#pe7a7e36826)" style="fill: none; stroke: #424242; stroke-width: 2.25; stroke-linecap: square"/>
   </g>
   <g id="line2d_33">
    <path clip-path="url(#pe7a7e36826)" style="fill: none; stroke: #424242; stroke-width: 2.25; stroke-linecap: square"/>
   </g>
   <g id="line2d_34">
    <path clip-path="url(#pe7a7e36826)" style="fill: none; stroke: #424242; stroke-width: 2.25; stroke-linecap: square"/>
   </g>
   <g id="line2d_35">
    <path clip-path="url(#pe7a7e36826)" style="fill: none; stroke: #424242; stroke-width: 2.25; stroke-linecap: square"/>
   </g>
   <g id="line2d_36">
    <path clip-path="url(#pe7a7e36826)" style="fill: none; stroke: #424242; stroke-width: 2.25; stroke-linecap: square"/>
   </g>
   <g id="line2d_37">
    <path clip-path="url(#pe7a7e36826)" style="fill: none; stroke: #424242; stroke-width: 2.25; stroke-linecap: square"/>
   </g>
   <g id="line2d_38">
    <path clip-path="url(#pe7a7e36826)" style="fill: none; stroke: #424242; stroke-width: 2.25; stroke-linecap: square"/>
   </g>
   <g id="line2d_39">
    <path clip-path="url(#pe7a7e36826)" style="fill: none; stroke: #424242; stroke-width: 2.25; stroke-linecap: square"/>
   </g>
   <g id="line2d_40">
    <path clip-path="url(#pe7a7e36826)" style="fill: none; stroke: #424242; stroke-width: 2.25; stroke-linecap: square"/>
   </g>
   <g id="line2d_41">
    <path clip-path="url(#pe7a7e36826)" style="fill: none; stroke: #424242; stroke-width: 2.25; stroke-linecap: square"/>
   </g>
   <g id="line2d_42">
    <path clip-path="url(#pe7a7e36826)" style="fill: none; stroke: #424242; stroke-width: 2.25; stroke-linecap: square"/>
   </g>
   <g id="patch_20">
    <path d="M 212.3125 525.476875 
L 212.3125 28.396875 
" style="fill: none; stroke: #000000; stroke-width: 0.8; stroke-linejoin: miter; stroke-linecap: square"/>
   </g>
   <g id="patch_21">
    <path d="M 699.957335 525.476875 
L 699.957335 28.396875 
" style="fill: none; stroke: #000000; stroke-width: 0.8; stroke-linejoin: miter; stroke-linecap: square"/>
   </g>
   <g id="patch_22">
    <path d="M 212.3125 525.476875 
L 699.957335 525.476875 
" style="fill: none; stroke: #000000; stroke-width: 0.8; stroke-linejoin: miter; stroke-linecap: square"/>
   </g>
   <g id="patch_23">
    <path d="M 212.3125 28.396875 
L 699.957335 28.396875 
" style="fill: none; stroke: #000000; stroke-width: 0.8; stroke-linejoin: miter; stroke-linecap: square"/>
   </g>
   <g id="text_28">
    <!-- Correlation with Happiness Score -->
    <g transform="translate(290.21148 22.396875) scale(0.2 -0.2)">
     <use xlink:href="#DejaVuSans-43"/>
     <use xlink:href="#DejaVuSans-6f" transform="translate(69.824219 0)"/>
     <use xlink:href="#DejaVuSans-72" transform="translate(131.005859 0)"/>
     <use xlink:href="#DejaVuSans-72" transform="translate(170.369141 0)"/>
     <use xlink:href="#DejaVuSans-65" transform="translate(209.232422 0)"/>
     <use xlink:href="#DejaVuSans-6c" transform="translate(270.755859 0)"/>
     <use xlink:href="#DejaVuSans-61" transform="translate(298.539062 0)"/>
     <use xlink:href="#DejaVuSans-74" transform="translate(359.818359 0)"/>
     <use xlink:href="#DejaVuSans-69" transform="translate(399.027344 0)"/>
     <use xlink:href="#DejaVuSans-6f" transform="translate(426.810547 0)"/>
     <use xlink:href="#DejaVuSans-6e" transform="translate(487.992188 0)"/>
     <use xlink:href="#DejaVuSans-20" transform="translate(551.371094 0)"/>
     <use xlink:href="#DejaVuSans-77" transform="translate(583.158203 0)"/>
     <use xlink:href="#DejaVuSans-69" transform="translate(664.945312 0)"/>
     <use xlink:href="#DejaVuSans-74" transform="translate(692.728516 0)"/>
     <use xlink:href="#DejaVuSans-68" transform="translate(731.9375 0)"/>
     <use xlink:href="#DejaVuSans-20" transform="translate(795.316406 0)"/>
     <use xlink:href="#DejaVuSans-48" transform="translate(827.103516 0)"/>
     <use xlink:href="#DejaVuSans-61" transform="translate(902.298828 0)"/>
     <use xlink:href="#DejaVuSans-70" transform="translate(963.578125 0)"/>
     <use xlink:href="#DejaVuSans-70" transform="translate(1027.054688 0)"/>
     <use xlink:href="#DejaVuSans-69" transform="translate(1090.53125 0)"/>
     <use xlink:href="#DejaVuSans-6e" transform="translate(1118.314453 0)"/>
     <use xlink:href="#DejaVuSans-65" transform="translate(1181.693359 0)"/>
     <use xlink:href="#DejaVuSans-73" transform="translate(1243.216797 0)"/>
     <use xlink:href="#DejaVuSans-73" transform="translate(1295.316406 0)"/>
     <use xlink:href="#DejaVuSans-20" transform="translate(1347.416016 0)"/>
     <use xlink:href="#DejaVuSans-53" transform="translate(1379.203125 0)"/>
     <use xlink:href="#DejaVuSans-63" transform="translate(1442.679688 0)"/>
     <use xlink:href="#DejaVuSans-6f" transform="translate(1497.660156 0)"/>
     <use xlink:href="#DejaVuSans-72" transform="translate(1558.841797 0)"/>
     <use xlink:href="#DejaVuSans-65" transform="translate(1597.705078 0)"/>
    </g>
   </g>
  </g>
 </g>
 <defs>
  <clipPath id="pe7a7e36826">
   <rect x="212.3125" y="28.396875" width="487.644835" height="497.08"/>
  </clipPath>
 </defs>
</svg>
